<svg width="227" height="55" viewBox="0 0 227 55" fill="none" xmlns="http://www.w3.org/2000/svg">
<path d="M88.4689 32.4554C88.9477 32.6147 89.0448 32.9553 89.2257 33.2075C93.4931 39.1531 97.7516 45.1054 102.021 51.0488C102.242 51.3562 102.341 51.8274 102.86 51.8274C105.485 51.8274 108.111 51.8274 110.772 51.8274C110.766 51.3761 110.505 51.1926 110.34 50.9714C105.702 44.7492 101.07 38.5205 96.399 32.3249C95.9401 31.7144 95.9202 31.3561 96.3748 30.739C98.707 27.5693 100.991 24.3643 103.272 21.157C103.811 20.4005 104.459 19.706 104.892 18.7194C102.535 18.7194 100.302 18.7526 98.0716 18.7018C97.328 18.6841 96.8668 18.9163 96.4454 19.529C94.0006 23.0703 91.5227 26.585 89.047 30.1042C88.919 30.2855 88.8903 30.6284 88.4733 30.5289C88.4733 30.1705 88.4733 29.8056 88.4733 29.4428C88.4733 25.2424 88.4953 21.042 88.4689 16.8415C88.449 13.59 86.1609 10.876 83.0938 10.3429C82.2686 10.1992 81.8516 10.2589 81.8692 11.3228C81.9354 15.1162 81.8913 18.9119 81.8869 22.7075C81.8802 29.56 81.8935 36.4125 81.8449 43.2651C81.8383 44.1609 82.0987 44.3931 82.9504 44.3577C84.4552 44.2936 85.9667 44.2847 87.4693 44.3555C88.3321 44.3953 88.502 44.0879 88.4909 43.2872C88.4446 40.0821 88.4711 36.877 88.4711 33.672C88.4711 33.2849 88.4711 32.9 88.4711 32.4621L88.4689 32.4554Z" fill="#FEFEFE"/>
<path d="M114.619 18.0384C112.223 18.0296 109.93 18.4432 107.882 19.7637C105.477 21.3165 104.396 23.5992 104.471 26.4127C104.546 29.2329 106.115 31.0356 108.611 32.1416C109.654 32.6039 110.72 32.9976 111.817 33.3139C113.754 33.8757 115.731 34.3048 117.617 35.0436C118.48 35.382 119.063 35.8908 119.065 36.895C119.065 37.8903 118.58 38.5605 117.723 38.9985C115.104 40.3345 111.51 38.9985 110.453 36.2358C110.237 35.6696 109.974 35.6231 109.484 35.7027C107.781 35.977 106.075 36.2402 104.365 36.4681C103.792 36.5455 103.617 36.7534 103.758 37.3285C104.275 39.4254 105.224 41.2458 106.956 42.5995C110.711 45.5347 118.107 45.8842 122.108 43.2896C124.771 41.5621 125.83 39.0582 125.645 35.9306C125.466 32.9135 123.635 31.2524 121.079 30.1376C119.557 29.474 117.953 29.0825 116.36 28.6467C114.842 28.2309 113.271 27.9522 111.87 27.1825C110.76 26.5742 110.596 25.2492 111.49 24.4308C113.127 22.9334 118.07 23.4222 118.703 26.1959C118.827 26.7401 119.065 26.8131 119.546 26.7224C121.278 26.395 123.012 26.0787 124.751 25.8022C125.351 25.7071 125.455 25.4395 125.325 24.9042C124.883 23.0838 123.948 21.5797 122.481 20.4251C120.173 18.6091 117.478 18.0495 114.623 18.0362L114.619 18.0384Z" fill="#FEFEFE"/>
<path d="M126.21 30.0271C126.227 38.804 130.625 43.8914 137.631 44.5151C143.44 45.0327 148.092 42.1528 149.857 37.0079C150.115 36.2558 149.932 36.0678 149.226 35.9418C147.637 35.6542 146.055 35.3224 144.486 34.9442C143.831 34.7871 143.524 34.8999 143.273 35.5768C142.52 37.6029 140.989 38.5452 138.846 38.554C136.688 38.5629 134.972 37.7931 133.957 35.798C132.838 33.6015 132.781 31.2702 133.189 28.899C133.39 27.7267 133.778 26.6119 134.57 25.694C137.169 22.6902 141.827 23.4953 143.425 27.2224C143.604 27.6427 143.628 28.1536 144.363 27.9346C146.051 27.4325 147.756 26.9924 149.462 26.5522C149.941 26.4283 150.139 26.2646 149.972 25.7227C149.51 24.2297 148.879 22.834 147.833 21.655C144.1 17.4457 136.393 16.6229 131.666 19.9452C127.741 22.7057 126.267 26.6628 126.214 30.0227L126.21 30.0271Z" fill="#FEFEFE"/>
<path d="M66.8621 7.49295C66.7827 6.93776 67.4733 5.96894 66.0281 6.10387C61.6371 6.51528 57.4095 7.48189 53.5327 9.65841C52.8972 10.0145 52.4515 10.0167 51.8292 9.66505C47.9237 7.45756 43.6608 6.49095 39.2345 6.10387C38.5417 6.04414 38.3541 6.24543 38.4181 6.95103C38.6189 9.14746 38.7579 11.3505 38.8991 13.5514C38.9499 14.3388 39.3051 14.6772 40.1105 14.7569C44.6802 15.2081 48.8505 16.6038 52.0852 20.0765C52.5265 20.5499 52.8023 20.4946 53.248 20.0832C54.2939 19.1121 55.3199 18.1123 56.5622 17.3758C59.2056 15.8053 62.1093 15.0842 65.1212 14.7679C66.0634 14.6684 66.4363 14.3477 66.465 13.3612C66.5223 11.4125 66.7209 9.4704 66.8643 7.49295H66.8621Z" fill="#FEFEFE"/>
<path d="M39.821 2.84237C39.0001 2.81361 38.6802 3.19849 38.9141 4.01911C39.0884 4.62959 39.6025 4.47918 40.0041 4.50573C44.2582 4.80434 48.305 5.82182 52.0384 7.93641C52.473 8.18414 52.8437 8.18856 53.2718 7.94747C57.0096 5.83509 61.0563 4.79991 65.3149 4.519C65.9967 4.47476 66.5108 4.37965 66.4358 3.45949C66.3541 2.46192 65.6481 2.82467 65.2222 2.87112C61.0872 3.33562 57.0471 4.17394 53.3843 6.28411C52.8393 6.5982 52.4002 6.53848 51.8663 6.23544C48.1615 4.1297 44.0883 3.29139 39.821 2.83794V2.84237Z" fill="#FEFEFE"/>
<path d="M41.9967 0.104046C41.9239 0.0996222 41.8422 0.0730792 41.7783 0.0951984C41.3524 0.243397 40.6088 -0.384787 40.5294 0.626058C40.4544 1.60815 41.1671 1.40686 41.7143 1.4511C45.3329 1.74529 48.7905 2.61899 52.001 4.35313C52.4334 4.58759 52.7799 4.67386 53.2234 4.42613C56.5552 2.56812 60.1628 1.68778 63.9404 1.45553C64.5714 1.41571 64.8914 1.24318 64.8627 0.555276C64.8318 -0.229953 64.2735 0.0399005 63.9028 0.0642316C60.2003 0.309754 56.6589 1.17682 53.3778 2.94635C52.8461 3.23169 52.4886 3.20294 51.9745 2.92645C48.8589 1.25203 45.4984 0.418138 41.9945 0.101834L41.9967 0.104046Z" fill="#FEFEFE"/>
<path d="M20.7566 26.3766C23.6294 27.8033 25.1276 30.1988 25.2997 33.2491C25.6175 38.8784 23.0866 44.0896 15.5867 44.2998C10.664 44.4369 5.7347 44.3197 0.809786 44.3418C0.194172 44.344 0 44.1737 0 43.5367C0.0198585 32.7049 0.017652 21.8732 0 11.0414C0 10.4199 0.169901 10.2319 0.796547 10.2385C5.39048 10.2761 9.98883 10.1655 14.5806 10.3159C20.9816 10.5261 25.0394 16.1443 23.4661 22.3709C23.0491 24.0165 22.1202 25.2862 20.7566 26.3789V26.3766ZM11.1495 29.5861C9.86306 29.5861 8.57667 29.6038 7.29028 29.5773C6.78279 29.5662 6.56655 29.71 6.57317 30.2563C6.59523 32.6872 6.59303 35.1181 6.57979 37.549C6.57758 38.0091 6.71218 38.2015 7.20202 38.1971C9.7748 38.1728 12.3498 38.2568 14.9182 38.1484C17.3608 38.0445 18.8722 36.1024 18.7862 33.4326C18.7111 31.161 17.0916 29.637 14.6776 29.5906C13.5016 29.5684 12.3255 29.5861 11.1495 29.5861ZM10.6508 16.3102V16.3036C9.51443 16.3036 8.37588 16.3169 7.23953 16.297C6.79823 16.2881 6.56434 16.3788 6.57096 16.8942C6.59303 18.9159 6.5842 20.9375 6.58199 22.9592C6.58199 23.3596 6.71438 23.5432 7.1623 23.5388C9.43721 23.5144 11.7143 23.6007 13.9826 23.4901C16.1075 23.3861 17.2946 21.9351 17.2173 19.8183C17.1423 17.7612 15.7897 16.3854 13.7311 16.3146C12.705 16.2793 11.6768 16.308 10.6508 16.308V16.3102Z" fill="#313541"/>
<path d="M88.4688 32.4561C88.4688 32.894 88.4688 33.2789 88.4688 33.666C88.4688 36.8711 88.4424 40.0761 88.4887 43.2812C88.4997 44.0819 88.3298 44.3916 87.4671 44.3495C85.9622 44.2788 84.4508 44.2876 82.9482 44.3517C82.0965 44.3893 81.8361 44.1571 81.8427 43.2591C81.889 36.4066 81.878 29.554 81.8846 22.7015C81.889 18.9059 81.9332 15.1103 81.867 11.3168C81.8493 10.2529 82.2641 10.1954 83.0916 10.3369C86.1586 10.87 88.4468 13.584 88.4666 16.8355C88.4931 21.036 88.471 25.2364 88.471 29.4368C88.471 29.8018 88.471 30.1645 88.471 30.5229C88.8881 30.6246 88.9168 30.2796 89.0447 30.0982C91.5204 26.579 94.0005 23.0643 96.4431 19.523C96.8646 18.9103 97.3257 18.6803 98.0693 18.6958C100.3 18.7466 102.533 18.7135 104.89 18.7135C104.459 19.7 103.808 20.3945 103.27 21.151C100.991 24.3583 98.7048 27.5633 96.3725 30.733C95.918 31.3501 95.9378 31.7085 96.3968 32.3189C101.068 38.5167 105.699 44.7433 110.337 50.9654C110.503 51.1866 110.763 51.3701 110.77 51.8214C108.111 51.8214 105.483 51.8214 102.857 51.8214C102.341 51.8214 102.24 51.348 102.019 51.0428C97.7494 45.0994 93.4908 39.1471 89.2235 33.2015C89.0425 32.9493 88.9454 32.6087 88.4666 32.4494L88.4688 32.4561Z" fill="#313541"/>
<path d="M183.365 43.1128C183.365 45.088 183.393 46.9615 183.358 48.8328C183.301 51.9184 180.86 54.6081 177.886 54.9775C177.175 55.066 176.937 54.9111 176.939 54.1414C176.964 42.6062 176.964 31.0733 176.939 19.5382C176.939 18.806 177.14 18.5694 177.862 18.6003C179 18.6512 180.143 18.6578 181.28 18.6003C182.142 18.5583 182.846 18.5915 182.617 19.8943C185.267 18.023 188.093 17.616 191.054 18.0739C194.896 18.6667 197.729 20.7923 199.371 24.2739C201.643 29.0937 201.612 34.0041 199.079 38.7265C196.191 44.1126 189.759 46.1033 184.243 43.4755C183.987 43.3539 183.72 43.2565 183.367 43.1128H183.365ZM182.588 31.2967C182.661 32.542 182.707 33.7851 183.089 34.9995C183.819 37.3264 185.273 38.6049 187.535 38.8106C190.2 39.0539 192.235 38.0608 193.234 35.7847C194.556 32.7831 194.58 29.6975 193.206 26.7004C192.195 24.4951 190.044 23.4201 187.486 23.6346C185.282 23.8182 183.863 25.0923 183.089 27.4878C182.685 28.7353 182.665 30.016 182.588 31.2989V31.2967Z" fill="#313541"/>
<path d="M218.045 33.0239C215.434 33.0239 212.824 33.0527 210.216 33.0062C209.435 32.993 209.265 33.223 209.457 33.9463C210.055 36.2024 211.22 37.9521 213.66 38.3922C216.266 38.8612 218.592 38.3834 220.05 35.8817C220.33 35.3995 220.593 35.4305 221.014 35.5566C222.632 36.0366 224.245 36.5431 225.884 36.9412C226.718 37.1447 226.65 37.4765 226.326 38.0804C223.896 42.6081 219.995 44.6343 215.006 44.5215C208.576 44.3777 203.716 40.4117 202.714 34.2759C201.791 28.6244 202.983 23.4994 207.985 20.0024C215.75 14.5766 225.92 19.3145 226.862 28.724C226.972 29.8255 227.007 30.9226 226.999 32.0308C226.992 32.8801 226.665 33.0571 225.873 33.0416C223.265 32.9907 220.655 33.0217 218.045 33.0217V33.0239ZM214.986 28.3081C216.562 28.3081 218.139 28.3148 219.715 28.3015C220.002 28.2993 220.483 28.4408 220.377 27.8746C220.125 26.5253 219.774 25.2092 218.567 24.351C215.5 22.1679 210.715 23.8511 209.671 27.4477C209.457 28.182 209.673 28.3369 210.366 28.3192C211.906 28.2816 213.446 28.3081 214.986 28.3059V28.3081Z" fill="#313541"/>
<path d="M167.451 40.9956C164.296 44.4528 160.47 45.1208 156.271 44.1652C153.136 43.4508 150.982 40.8606 150.717 37.7839C150.391 33.9705 151.887 31.1747 155.038 29.7192C157.849 28.423 160.887 28.0691 163.89 27.5648C164.687 27.4321 165.481 27.2773 166.284 27.1976C166.8 27.1468 166.902 26.9278 166.767 26.4832C166.496 25.5763 166.085 24.7822 165.194 24.3199C162.635 22.9906 159.075 23.9063 157.535 26.3615C157.248 26.8172 156.986 26.7398 156.635 26.6292C155.166 26.1647 153.711 25.6449 152.224 25.2423C151.507 25.0477 151.598 24.7424 151.812 24.2293C153.241 20.7765 155.816 18.7503 159.466 18.1465C162.22 17.6908 164.967 17.8236 167.632 18.7326C170.889 19.8452 172.758 22.181 173.018 25.5763C173.409 30.6858 173.122 35.8153 173.171 40.9358C173.179 41.8825 173.574 43.1101 172.998 43.7074C172.418 44.3112 171.189 43.8887 170.247 43.8843C169.382 43.8799 168.277 44.2847 167.707 43.7051C167.151 43.1389 167.683 42.0219 167.453 40.9956H167.451ZM166.776 33.3799C167.028 32.4708 166.633 32.2895 165.686 32.5173C164.298 32.8513 162.873 33.0327 161.476 33.3379C160.329 33.5879 159.201 33.9219 158.204 34.5876C157.266 35.2114 156.763 36.0608 156.953 37.2043C157.149 38.3921 157.93 39.038 159.067 39.3256C162.948 40.3054 166.591 37.556 166.778 33.3821L166.776 33.3799Z" fill="#313541"/>
<path d="M52.0185 31.268C52.0362 37.5211 48.9735 42.4072 43.8655 44.1878C35.5227 47.0965 26.6879 42.405 26.2444 32.4315C26.0237 27.448 27.4602 23.1459 31.7055 20.2129C38.4772 15.5347 50.6086 18.0319 51.895 29.6334C51.9634 30.255 51.9898 30.8809 52.0185 31.268ZM33.0801 31.4074C33.0316 33.2632 33.3802 34.9155 34.2518 36.4793C36.1118 39.8148 42.1246 39.6534 43.85 36.5899C45.4012 33.8338 45.5358 30.9805 44.6245 28.0585C43.775 25.3379 41.6744 23.9731 38.8325 24.0881C36.0479 24.1987 34.1922 25.694 33.4332 28.4412C33.1573 29.4432 33.0316 30.4629 33.0801 31.4074Z" fill="#313541"/>
<path d="M79.1706 31.4988C78.9897 37.1856 76.9155 41.709 71.5361 43.9585C63.7913 47.1946 54.0099 43.2706 53.3965 32.5694C53.1383 28.0814 54.2437 24.0314 57.783 21.0409C61.8451 17.6102 66.556 17.159 71.3574 19.0126C76.0285 20.8153 78.4027 24.5822 79.0206 29.497C79.1088 30.1894 79.1265 30.8928 79.1706 31.4988ZM60.2079 31.5563C60.1792 32.7043 60.3227 33.8302 60.6757 34.9251C61.4391 37.2896 63.1845 38.745 65.4263 38.891C68.5 39.0923 70.349 38.1346 71.4787 35.7059C72.4452 33.6267 72.5003 31.4258 72.1054 29.225C71.5074 25.8894 69.4002 24.1 66.2184 24.0978C63.0499 24.0955 61.1126 25.7899 60.4109 29.1453C60.2432 29.9461 60.2256 30.749 60.2057 31.5563H60.2079Z" fill="#313541"/>
<path d="M114.615 18.039C117.473 18.0523 120.167 18.6119 122.473 20.4279C123.94 21.5825 124.876 23.0866 125.317 24.907C125.447 25.4423 125.343 25.7099 124.743 25.805C123.002 26.0815 121.27 26.3978 119.538 26.7252C119.057 26.8159 118.821 26.7429 118.695 26.1988C118.062 23.425 113.119 22.9362 111.482 24.4336C110.589 25.2498 110.752 26.5748 111.862 27.1853C113.263 27.955 114.832 28.2337 116.352 28.6496C117.945 29.0853 119.549 29.4768 121.072 30.1404C123.627 31.2552 125.458 32.9163 125.637 35.9334C125.822 39.061 124.763 41.5649 122.1 43.2924C118.097 45.887 110.703 45.5375 106.948 42.6023C105.216 41.2486 104.267 39.4282 103.751 37.3313C103.609 36.7562 103.784 36.5461 104.357 36.4709C106.067 36.2431 107.773 35.9776 109.476 35.7056C109.966 35.6259 110.229 35.6724 110.445 36.2386C111.504 39.0013 115.096 40.3373 117.716 39.0013C118.574 38.5634 119.059 37.8931 119.057 36.8978C119.057 35.8936 118.472 35.3848 117.61 35.0464C115.723 34.3076 113.746 33.8785 111.809 33.3167C110.712 33.0004 109.646 32.6067 108.603 32.1444C106.109 31.0406 104.541 29.2379 104.463 26.4155C104.388 23.602 105.469 21.3193 107.875 19.7665C109.922 18.4438 112.215 18.0324 114.611 18.0412L114.615 18.039Z" fill="#313541"/>
<path d="M126.21 30.027C126.263 26.6671 127.737 22.71 131.662 19.9495C136.388 16.625 144.096 17.45 147.829 21.6593C148.875 22.8382 149.506 24.234 149.967 25.727C150.135 26.2689 149.936 26.4326 149.457 26.5565C147.752 26.9966 146.046 27.4368 144.358 27.9389C143.623 28.1579 143.601 27.6469 143.42 27.2267C141.823 23.5018 137.165 22.6945 134.566 25.6983C133.774 26.614 133.385 27.7288 133.184 28.9033C132.778 31.2723 132.836 33.6036 133.952 35.8023C134.967 37.7974 136.686 38.565 138.842 38.5583C140.984 38.5495 142.518 37.6072 143.268 35.5811C143.52 34.9042 143.826 34.7914 144.482 34.9485C146.051 35.3245 147.635 35.6585 149.221 35.9461C149.925 36.0743 150.11 36.2601 149.852 37.0122C148.087 42.1571 143.438 45.037 137.626 44.5194C130.62 43.8957 126.225 38.8083 126.205 30.0314L126.21 30.027Z" fill="#313541"/>
<path d="M66.8622 7.49295C66.7188 9.46819 66.5224 11.4125 66.4628 13.3612C66.4341 14.3455 66.0612 14.6684 65.1191 14.7679C62.1072 15.0842 59.2034 15.8075 56.56 17.3758C55.3178 18.1146 54.2918 19.1143 53.2459 20.0832C52.8002 20.4968 52.5244 20.5521 52.0831 20.0765C48.8505 16.6038 44.678 15.2081 40.1084 14.7569C39.303 14.6772 38.9478 14.3388 38.897 13.5514C38.7558 11.3505 38.6168 9.14746 38.416 6.95103C38.352 6.24543 38.5373 6.04414 39.2324 6.10387C43.6586 6.49095 47.9216 7.45756 51.8271 9.66505C52.4493 10.0167 52.8928 10.0145 53.5305 9.65841C57.4073 7.48189 61.6372 6.51528 66.0259 6.10387C67.4734 5.96894 66.7806 6.93776 66.86 7.49295H66.8622Z" fill="#FA4206"/>
<path d="M39.821 2.84222C44.0883 3.29566 48.1593 4.13397 51.8663 6.23972C52.4002 6.54275 52.8393 6.60247 53.3843 6.28838C57.0471 4.17821 61.0872 3.3399 65.2222 2.87539C65.6481 2.82673 66.3563 2.46619 66.4358 3.46376C66.5108 4.38613 65.9967 4.47903 65.3149 4.52327C61.0563 4.80197 57.0096 5.83936 53.2718 7.95174C52.8437 8.19284 52.473 8.18841 52.0384 7.94068C48.305 5.82388 44.256 4.80861 40.0041 4.51C39.6025 4.48124 39.0884 4.63387 38.9141 4.02338C38.6802 3.20276 39.0001 2.81789 39.821 2.84664V2.84222Z" fill="#FA4206"/>
<path d="M41.9979 0.103482C45.5018 0.419786 48.8623 1.25368 51.9779 2.9281C52.492 3.20459 52.8494 3.23334 53.3812 2.948C56.6623 1.17847 60.2059 0.311402 63.9062 0.0658795C64.2747 0.0415485 64.8329 -0.228305 64.866 0.556924C64.8925 1.24483 64.5748 1.41736 63.9437 1.45717C60.1662 1.69164 56.5585 2.56977 53.2267 4.42777C52.7832 4.67551 52.4368 4.58703 52.0043 4.35478C48.7939 2.62064 45.3363 1.74693 41.7176 1.45275C41.1704 1.40851 40.4577 1.6098 40.5327 0.627706C40.61 -0.385351 41.3558 0.245045 41.7816 0.0968463C41.8456 0.0747272 41.9272 0.10127 42.0001 0.105694L41.9979 0.103482Z" fill="#FA4206"/>
</svg>
